#!OML:ASF H:\GeneralSubjects\Female5\Project 1\Capture day 1\Session 1\Female5.ASF
:FULLY-SPECIFIED
:DEGREES
96
root -9.47505 16.1168 3.90696 -175.978 -84.0737 186.052
lowerback 8.26413 1.67722 -2.63495
upperback -9.60328 1.83396 1.5576
thorax -15.5104 1.16906 2.86243
lowerneck -18.9455 -0.171729 1.24418
upperneck 26.0173 -0.276914 -2.41505
head 11.638 -0.450469 -1.17622
rclavicle -1.0635e-014 -1.27222e-014
rhumerus -46.1973 22.1491 -81.404
rradius 34.0741
rwrist -21.2851
rhand -21.2839 -27.5368
rfingers 7.12502
rthumb 5.10019 -57.4555
lclavicle -1.0635e-014 -1.27222e-014
lhumerus -40.0296 8.96946 68.5213
lradius 28.2333
lwrist 3.47771
lhand -29.7417 41.2523
lfingers 7.12502
lthumb -3.068 71.21
rfemur -14.5775 21.3715 21.8047
rtibia 1.58499
rfoot -6.1225 -16.6884
rtoes -36.6872
lfemur 3.88874 -27.6332 -32.4357
ltibia -0.271198
lfoot -38.7061 -0.666507
ltoes -24.3063
97
root -9.46667 16.1246 3.90377 -174.679 -84.121 184.845
lowerback 8.38122 1.65468 -2.8152
upperback -9.6312 1.76845 1.52859
thorax -15.6234 1.15871 2.94417
lowerneck -18.7452 -0.129012 1.59507
upperneck 25.3728 -0.23324 -2.68315
head 11.3518 -0.420469 -1.31522
rclavicle -9.49197e-015 -5.56597e-015
rhumerus -44.5715 23.566 -81.5586
rradius 36.2439
rwrist -23.0771
rhand -20.5667 -28.219
rfingers 7.12502
rthumb 5.7927 -58.1198
lclavicle -9.49197e-015 -5.56597e-015
lhumerus -37.5974 7.57175 70.3506
lradius 29.7571
lwrist 5.72276
lhand -30.8782 39.7733
lfingers 7.12502
lthumb -4.16555 69.7123
rfemur -16.5115 18.4244 21.8435
rtibia 4.8397
rfoot -6.81237 -13.9792
rtoes -39.5291
lfemur 3.32482 -27.0851 -32.2979
ltibia 0.253371
lfoot -38.1113 -1.68028
ltoes -23.62
98
root -9.45897 16.1266 3.90095 -172.901 -84.1074 183.146
lowerback 8.56418 1.64979 -2.99535
upperback -9.63929 1.72211 1.46342
thorax -15.7546 1.15541 2.97985
lowerneck -18.5743 -0.0979893 1.92391
upperneck 24.7147 -0.230117 -2.84247
head 11.0692 -0.397336 -1.41547
rclavicle -8.00108e-015 1.19271e-015
rhumerus -42.4914 24.9007 -81.4647
rradius 38.3062
rwrist -25.0534
rhand -20.5696 -28.6876
rfingers 7.12502
rthumb 5.78992 -58.5885
lclavicle -8.00108e-015 1.19271e-015
lhumerus -34.8344 5.9797 72.0606
lradius 31.399
lwrist 7.25485
lhand -31.079 39.3533
lfingers 7.12502
lthumb -4.3594 69.2884
rfemur -18.7431 15.546 21.8471
rtibia 8.69499
rfoot -8.15966 -11.4547
rtoes -40.9899
lfemur 2.96792 -26.6353 -32.2904
ltibia 0.458683
lfoot -37.8663 -2.35994
ltoes -23.4482
99
root -9.45334 16.1201 3.89341 -170.166 -84.058 180.468
lowerback 8.8539 1.6613 -3.34763
upperback -9.66901 1.66775 1.41385
thorax -15.9917 1.1718 3.13104
lowerneck -18.5477 -0.0559313 2.12072
upperneck 24.2271 -0.209718 -2.87235
head 10.8825 -0.365439 -1.4474
rclavicle 1.68967e-014 1.74931e-014
rhumerus -40.0874 26.1312 -81.0383
rradius 40.3067
rwrist -27.0365
rhand -21.0212 -28.8485
rfingers 7.12502
rthumb 5.35392 -58.7609
lclavicle 1.68967e-014 1.74931e-014
lhumerus -32.0104 3.77855 73.7355
lradius 33.3152
lwrist 8.6059
lhand -31.1422 39.3048
lfingers 7.12502
lthumb -4.42048 69.2387
rfemur -21.0982 12.9626 21.7542
rtibia 12.8855
rfoot -10.2411 -9.92042
rtoes -45.1684
lfemur 2.69799 -25.8954 -32.331
ltibia 0.50705
lfoot -37.5559 -2.83891
ltoes -23.9969
100
root -9.45712 16.1075 3.88085 -164.35 -84.0396 174.71
lowerback 9.06098 1.68487 -3.94165
upperback -9.71546 1.57204 1.24777
thorax -16.1998 1.18786 3.29681
lowerneck -18.4599 -0.0543601 2.32463
upperneck 23.7814 -0.222037 -3.00833
head 10.6996 -0.362958 -1.52401
rclavicle 1.18277e-014 3.97569e-016
rhumerus -37.4915 27.2561 -80.4285
rradius 42.2578
rwrist -29.2336
rhand -21.8502 -28.325
rfingers 7.12502
rthumb 4.55344 -58.2561
lclavicle 1.18277e-014 3.97569e-016
lhumerus -28.9185 1.32227 75.1698
lradius 35.121
lwrist 9.74733
lhand -31.2299 39.8306
lfingers 7.12502
lthumb -4.50516 69.7627
rfemur -23.1792 10.8387 21.2203
rtibia 16.7819
rfoot -12.916 -9.61498
rtoes -44.4995
lfemur 2.47943 -24.8228 -32.685
ltibia 0.430172
lfoot -36.8509 -2.55129
ltoes -25.3996
101
root -9.47043 16.0891 3.86077 -156.632 -83.9433 167.097
lowerback 9.15743 1.71197 -4.68936
upperback -9.80143 1.4436 1.02621
thorax -16.3883 1.20211 3.49495
lowerneck -18.3226 -0.0632467 2.45852
upperneck 23.447 -0.221256 -3.18202
head 10.5498 -0.367853 -1.60186
rclavicle -7.05686e-015 3.18055e-015
rhumerus -34.6677 28.2479 -79.6788
rradius 43.9975
rwrist -31.6013
rhand -22.8933 -27.4684
rfingers 7.12502
rthumb 3.54616 -57.4187
lclavicle -7.05686e-015 3.18055e-015
lhumerus -25.465 -1.18183 76.388
lradius 36.4441
lwrist 11.1779
lhand -31.592 39.6026
lfingers 7.12502
lthumb -4.85475 69.527
rfemur -24.9797 9.53248 20.2255
rtibia 20.4456
rfoot -16.1078 -10.7203
rtoes -39.1795
lfemur 2.39338 -23.9715 -33.3089
ltibia 0.136047
lfoot -36.3276 -1.17818
ltoes -28.0842
102
root -9.49722 16.065 3.83175 -149.137 -83.7096 159.754
lowerback 9.17705 1.72565 -5.51484
upperback -9.95521 1.28897 0.894265
thorax -16.6177 1.22289 3.84646
lowerneck -18.2152 -0.00913537 2.37192
upperneck 23.3215 -0.0964254 -3.25647
head 10.4876 -0.326378 -1.59331
rclavicle -6.90777e-015 4.77083e-015
rhumerus -31.7019 29.0843 -78.7399
rradius 45.4792
rwrist -33.4795
rhand -23.3858 -27.2135
rfingers 7.12502
rthumb 3.07057 -57.1711
lclavicle -6.90777e-015 4.77083e-015
lhumerus -22.1532 -3.36302 77.4488
lradius 37.64
lwrist 12.8431
lhand -32.4129 38.5857
lfingers 7.12502
lthumb -5.64743 68.4905
rfemur -26.5737 8.74213 19.0318
rtibia 24.2755
rfoot -20.0019 -13.215
rtoes -32.5227
lfemur 2.68997 -23.9088 -34.1231
ltibia -0.520685
lfoot -36.6547 0.865088
ltoes -31.952
103
root -9.54582 16.0386 3.80164 -141.761 -83.4521 152.477
lowerback 9.11843 1.72102 -6.22308
upperback -10.1297 1.13212 0.787008
thorax -16.8164 1.23158 4.16138
lowerneck -18.0438 0.0662072 2.32206
upperneck 23.291 0.0912121 -3.51036
head 10.4501 -0.276613 -1.64788
rclavicle 9.79014e-015 1.39149e-014
rhumerus -28.7945 29.5948 -77.7136
rradius 46.6324
rwrist -34.3833
rhand -23.8457 -27.1439
rfingers 7.12502
rthumb 2.62634 -57.1074
lclavicle 9.79014e-015 1.39149e-014
lhumerus -19.13 -5.10281 78.3187
lradius 38.894
lwrist 14.0098
lhand -33.4005 39.9759
lfingers 7.12502
lthumb -6.60082 69.853
rfemur -27.6167 7.45958 17.8446
rtibia 28.2591
rfoot -24.3213 -16.0266
rtoes -26.5455
lfemur 3.42008 -24.514 -35.228
ltibia -1.37179
lfoot -37.846 3.14298
ltoes -35.9306
104
root -9.61625 16.0191 3.77522 -135.563 -83.2586 146.35
lowerback 8.93239 1.7275 -6.55622
upperback -10.3153 1.06413 0.700109
thorax -16.9368 1.23564 4.26775
lowerneck -17.7697 0.0752146 2.27814
upperneck 23.3256 0.222736 -3.92699
head 10.4152 -0.273501 -1.77036
rclavicle 3.47873e-016 -1.47101e-014
rhumerus -26.0363 29.6933 -76.665
rradius 47.4606
rwrist -34.733
rhand -24.4488 -27.0582
rfingers 7.12502
rthumb 2.04393 -57.0282
lclavicle 3.47873e-016 -1.47101e-014
lhumerus -16.3136 -6.77331 79.0936
lradius 40.167
lwrist 14.929
lhand -34.0448 42.359
lfingers 7.12502
lthumb -7.22283 72.2157
rfemur -28.1039 5.56636 16.8623
rtibia 32.4626
rfoot -28.993 -17.9253
rtoes -17.0662
lfemur 4.42723 -25.4807 -36.3795
ltibia -2.38001
lfoot -39.5333 4.92645
ltoes -37.7102
105
root -9.70968 16.0098 3.7525 -130.286 -83.2248 141.11
lowerback 8.5918 1.75499 -6.53043
upperback -10.5139 1.10152 0.653121
thorax -16.9669 1.24447 4.19397
lowerneck -17.5041 0.0200996 2.06369
upperneck 23.5024 0.277977 -4.2169
head 10.4312 -0.307698 -1.83236
rclavicle 2.78299e-015 1.98785e-015
rhumerus -23.4905 29.624 -75.6018
rradius 48.2522
rwrist -35.9005
rhand -24.9212 -27.3558
rfingers 7.12502
rthumb 1.5877 -57.3296
lclavicle 2.78299e-015 1.98785e-015
lhumerus -13.9454 -8.6278 79.918
lradius 41.7894
lwrist 16.247
lhand -33.0174 39.0592
lfingers 7.12502
lthumb -6.23099 68.9475
rfemur -27.3543 3.25518 16.1374
rtibia 35.3273
rfoot -32.771 -19.9981
rtoes -9.93817
lfemur 5.5827 -26.6359 -37.4368
ltibia -3.33328
lfoot -41.3726 5.77769
ltoes -37.0817
106
root -9.82498 16.006 3.73701 -123.243 -83.4159 134.005
lowerback 8.16287 1.69981 -6.26343
upperback -10.6755 1.08318 0.664366
thorax -16.8705 1.19914 4.06531
lowerneck -17.2908 0.0218082 1.9118
upperneck 23.7128 0.432161 -4.65123
head 10.474 -0.309961 -1.94437
rclavicle 6.06293e-015 -8.74653e-015
rhumerus -21.091 29.5793 -74.4798
rradius 48.9251
rwrist -37.7912
rhand -25.0718 -27.0602
rfingers 7.12502
rthumb 1.44226 -57.0351
lclavicle 6.06293e-015 -8.74653e-015
lhumerus -11.8473 -10.2136 80.8426
lradius 43.4218
lwrist 17.4273
lhand -31.9274 37.4183
lfingers 7.12502
lthumb -5.17866 67.335
rfemur -25.4587 0.2711 15.435
rtibia 36.7284
rfoot -34.6287 -23.1601
rtoes -9.90628
lfemur 6.50454 -27.3127 -38.3959
ltibia -3.51798
lfoot -42.3929 7.34037
ltoes -39.2821
